<svg width="100" height="100" viewBox="0 0 100 100" fill="none" xmlns="http://www.w3.org/2000/svg">
<circle cx="50" cy="50" r="45" stroke="#534D4D" stroke-width="10"/>
<ellipse cx="50" cy="77.5" rx="8" ry="7.5" fill="#534D4D"/>
<path d="M34.9795 34C32.2294 34 29.939 31.737 30.6167 29.0717C31.2399 26.6209 32.3259 24.2956 33.8322 22.227C36.3227 18.8068 39.8337 16.2645 43.8603 14.9657C47.8869 13.6669 52.2217 13.6785 56.2413 14.9988C60.2609 16.3191 63.7582 18.8801 66.2304 22.3136C68.7026 25.747 70.0223 29.876 69.9997 34.1068C69.9771 38.3377 68.6134 42.4523 66.1046 45.8592C63.5959 49.266 60.0714 51.7895 56.0379 53.0668C53.5984 53.8393 51.0487 54.1319 48.5268 53.9457C45.7841 53.7431 44.3643 50.8533 45.2365 48.2452C46.1086 45.637 49.0216 44.3648 51.7305 43.8908C52.1689 43.8141 52.6035 43.708 53.0313 43.5726C55.0564 42.9313 56.8259 41.6644 58.0854 39.9539C59.3449 38.2435 60.0296 36.1777 60.0409 34.0536C60.0523 31.9295 59.3897 29.8566 58.1485 28.1328C56.9074 26.409 55.1515 25.1232 53.1335 24.4604C51.1154 23.7975 48.9391 23.7917 46.9176 24.4438C44.896 25.0959 43.1333 26.3722 41.8829 28.0893C41.6188 28.4521 41.3803 28.8306 41.1686 29.2221C39.86 31.6409 37.7296 34 34.9795 34Z" fill="#534D4D"/>
<rect x="45" y="45" width="10" height="21" rx="5" fill="#534D4D"/>
</svg>
