<svg width="96" height="97" viewBox="0 0 96 97" fill="none" xmlns="http://www.w3.org/2000/svg">
<ellipse cx="18.5866" cy="11.7472" rx="18.5866" ry="11.7472" transform="matrix(0.908765 -0.417307 0.427967 0.903794 -4 80.5127)" fill="#534D4D"/>
<ellipse cx="18.1972" cy="12.3204" rx="18.1972" ry="12.3204" transform="matrix(0.908765 -0.417307 0.427967 0.903794 56 71.1876)" fill="#534D4D"/>
<path d="M27 17.25C27 14.9028 28.9028 13 31.25 13C33.5972 13 35.5 14.9028 35.5 17.25V76.25C35.5 78.5972 33.5972 80.5 31.25 80.5C28.9028 80.5 27 78.5972 27 76.25V17.25Z" fill="#534D4D"/>
<path d="M86 10.3121C86 8.1123 87.5904 6.23494 89.7602 5.8733C92.5031 5.41615 95 7.53134 95 10.3121V67.5C95 69.9853 92.9853 72 90.5 72C88.0147 72 86 69.9853 86 67.5V10.3121Z" fill="#534D4D"/>
<path d="M27 19.1545C27 14.3487 30.4185 10.2226 35.1404 9.32892L83.1404 0.244524C89.2994 -0.92111 95 3.80181 95 10.0701V13.8455C95 18.6513 91.5815 22.7774 86.8596 23.6711L38.8596 32.7555C32.7006 33.9211 27 29.1982 27 22.9299V19.1545Z" fill="#534D4D"/>
</svg>
