<svg width="369" height="377" viewBox="0 0 369 377" fill="none" xmlns="http://www.w3.org/2000/svg">
<path d="M86 50C86 33.4315 99.4315 20 116 20H319C335.569 20 349 33.4315 349 50V327C349 343.569 335.569 357 319 357H116C99.4315 357 86 343.569 86 327V269.5V114.5V50Z" stroke="#534D4D" stroke-width="40"/>
<path d="M19 169C8.50659 169 5.13003e-09 177.507 0 188C-5.13003e-09 198.493 8.50659 207 19 207L19 169ZM294.935 201.435C302.355 194.015 302.355 181.985 294.935 174.565L174.02 53.6497C166.6 46.2298 154.57 46.2298 147.15 53.6497C139.73 61.0697 139.73 73.0998 147.15 80.5198L254.63 188L147.15 295.48C139.73 302.9 139.73 314.93 147.15 322.35C154.57 329.77 166.6 329.77 174.02 322.35L294.935 201.435ZM19 207L281.5 207L281.5 169L19 169L19 207Z" fill="#534D4D"/>
</svg>
