<svg width="80" height="81" viewBox="0 0 80 81" fill="none" xmlns="http://www.w3.org/2000/svg">
<rect x="6" y="13" width="68" height="41" rx="6" stroke="#534D4D" stroke-width="12"/>
<rect x="35" width="10" height="11" rx="5" fill="#534D4D"/>
<path d="M28.4572 55.5013C29.2627 54.5492 30.4466 54 31.6937 54C35.3302 54 37.279 58.2779 34.8925 61.0217L19.5726 78.6346C18.3594 80.0294 16.3599 80.434 14.6999 79.6207C12.3141 78.4519 11.6644 75.3508 13.3803 73.3226L28.4572 55.5013Z" fill="#534D4D"/>
<path d="M51.1693 56.3525C50.3872 55.4912 49.2778 55 48.1143 55C44.5657 55 42.6721 59.1824 45.0134 61.849L60.2001 79.146C61.633 80.778 64.055 81.092 65.8567 79.8794C68.0413 78.4092 68.4128 75.3429 66.6427 73.3935L51.1693 56.3525Z" fill="#534D4D"/>
</svg>
